PathFileType	4	(X/Y/Z)	/Users/itak/Documents/Research/Walk-IL/dataset/trc/00197_00008.trc
DataRate	CameraRate	NumFrames	NumMarkers	Units	OrigDataRate	OrigDataStartFrame	OrigNumFrames
100.000000	100.000000	4	53	mm	100.000000	471	755
Frame#	Time	RPSI			LPSI			L3			STRN			T10			C7			CLAV			RBAK			LBAK			LSHO			LUPA			LAEL			LAOL			LWTS			LWPS			LFRA			LIFD			LHPS			LHTS			RSHO			RUPA			RAEL			RAOL			RWTS			RWPS			RFRA			RIFD			RHTS			RHPS			RBHD			LFHD			RFHD			LBHD			LHIP			RHIP			RASI			LASI			LKNE			LTHI			LANK			LTIP			LTOE			LMT1			LMT5			LHEE			RKNE			RTHI			RANK			RTIP			RTOE			RMT1			RMT5			RHEE			
		X1	Y1	Z1	X2	Y2	Z2	X3	Y3	Z3	X4	Y4	Z4	X5	Y5	Z5	X6	Y6	Z6	X7	Y7	Z7	X8	Y8	Z8	X9	Y9	Z9	X10	Y10	Z10	X11	Y11	Z11	X12	Y12	Z12	X13	Y13	Z13	X14	Y14	Z14	X15	Y15	Z15	X16	Y16	Z16	X17	Y17	Z17	X18	Y18	Z18	X19	Y19	Z19	X20	Y20	Z20	X21	Y21	Z21	X22	Y22	Z22	X23	Y23	Z23	X24	Y24	Z24	X25	Y25	Z25	X26	Y26	Z26	X27	Y27	Z27	X28	Y28	Z28	X29	Y29	Z29	X30	Y30	Z30	X31	Y31	Z31	X32	Y32	Z32	X33	Y33	Z33	X34	Y34	Z34	X35	Y35	Z35	X36	Y36	Z36	X37	Y37	Z37	X38	Y38	Z38	X39	Y39	Z39	X40	Y40	Z40	X41	Y41	Z41	X42	Y42	Z42	X43	Y43	Z43	X44	Y44	Z44	X45	Y45	Z45	X46	Y46	Z46	X47	Y47	Z47	X48	Y48	Z48	X49	Y49	Z49	X50	Y50	Z50	X51	Y51	Z51	X52	Y52	Z52	X53	Y53	Z53	

472	4.71	566.5987548828125	1014.43798828125	-432.6893005371094	651.27587890625	1021.065368652344	-516.19189453125	593.417236328125	1051.245483398438	-469.4008483886719	784.0496215820312	1268.824462890625	-293.0863342285156	561.6779174804688	1209.160400390625	-495.3760070800781	613.6861572265625	1479.117553710938	-457.1717529296875	768.7197265625	1381.689086914062	-321.2595825195312	493.4947814941406	1303.585205078125	-421.8153991699219	672.8861083984375	1456.114501953125	-537.529052734375	781.7947998046875	1447.99853515625	-548.9642333984375	797.05859375	1319.33251953125	-634.532470703125	815.6664428710938	1107.936767578125	-662.3228759765625	743.5294189453125	1083.206909179688	-616.325927734375	920.5919189453125	878.1214599609375	-622.4216918945312	855.1458129882812	858.8114624023438	-686.6849975585938	837.30712890625	1000.280700683594	-681.5088500976562	936.9056396484375	689.2337036132812	-618.2572021484375	877.4939575195312	789.9778442382812	-684.3796997070312	940.8229370117188	802.7761840820312	-648.4439086914062	545.6522216796875	1459.10791015625	-277.3476867675781	483.7823791503906	1393.214965820312	-237.7322387695312	438.6701049804688	1100.868774414062	-213.7199249267578	496.914306640625	1097.296630859375	-293.4053955078125	584.3858032226562	884.7583618164062	-149.915771484375	498.7960510253906	858.4949951171875	-157.8125762939453	453.7434692382812	1027.481201171875	-183.8126373291016	628.4511108398438	700.6472778320312	-171.342529296875	608.74365234375	790.764404296875	-132.3988494873047	531.0892333984375	778.4026489257812	-147.1756591796875	604.4456176757812	1627.724487304688	-372.1776428222656	805.1011962890625	1698.262084960938	-332.1600036621094	709.490966796875	1686.523681640625	-244.9851226806641	697.9978637695312	1646.786865234375	-467.9227294921875	821.001953125	978.46630859375	-518.9827270507812	573.3602294921875	958.884033203125	-236.8639831542969	668.105712890625	996.2757568359375	-207.6215057373047	851.8683471679688	1012.90283203125	-386.3068542480469	954.1786499023438	514.1347045898438	-329.8851623535156	932.6511840820312	645.0726318359375	-396.31884765625	991.5751342773438	28.39125061035156	-335.9532470703125	986.0282592773438	282.0969543457031	-331.8988952636719	1068.911499023438	78.58164215087891	-141.4015045166016	1006.478759765625	67.54695892333984	-157.0014343261719	1071.641967773438	35.22495651245117	-258.9108276367188	905.2154541015625	28.89530181884766	-346.0817565917969	555.5845336914062	472.007080078125	-364.5552368164062	593.0067749023438	722.0479736328125	-244.2253570556641	350.3491821289062	93.52346038818359	-635.3275756835938	538.995849609375	356.2981567382812	-423.8700561523438	543.8285522460938	39.79377365112305	-577.5696411132812	522.2604370117188	55.04945373535156	-634.193603515625	419.0398254394531	36.55751037597656	-562.3934326171875	347.6218872070312	139.2739715576172	-708.2069091796875	
473	4.72	576.8746948242188	1015.493530273438	-426.8534545898438	662.50244140625	1022.791748046875	-509.2827453613281	603.9507446289062	1052.546020507812	-463.376953125	792.2378540039062	1270.51416015625	-285.3701782226562	572.7374877929688	1210.110961914062	-490.3950805664062	624.2777709960938	1480.195556640625	-452.6817016601562	777.32275390625	1383.271484375	-314.2784729003906	503.56298828125	1304.858764648438	-418.2283935546875	684.5470581054688	1456.881469726562	-532.1444091796875	793.5494995117188	1448.71533203125	-542.119384765625	809.7841186523438	1319.673583984375	-626.9146118164062	828.2977294921875	1108.241821289062	-653.71728515625	755.5779418945312	1083.840087890625	-608.458251953125	930.780517578125	877.45703125	-612.9818115234375	865.9073486328125	858.9036865234375	-678.0326538085938	849.3446044921875	1000.569763183594	-672.7194213867188	944.75927734375	688.333740234375	-608.809326171875	887.463134765625	789.8590698242188	-675.5980834960938	950.3499145507812	801.676513671875	-638.7933959960938	553.5350341796875	1460.997680664062	-273.96240234375	491.1042785644531	1395.35791015625	-235.2565002441406	445.1636352539062	1103.234252929688	-211.6768035888672	504.5586853027344	1099.328247070312	-289.9960632324219	587.7794189453125	885.9046020507812	-144.8158416748047	502.1024780273438	860.51513671875	-154.1944885253906	459.1478271484375	1029.9345703125	-180.9580078125	630.1600341796875	701.2423095703125	-165.3219757080078	611.035400390625	791.68017578125	-126.6293563842773	533.3700561523438	780.1319580078125	-142.9526519775391	613.7137451171875	1629.215576171875	-368.1153869628906	813.6700439453125	1699.648193359375	-324.4574890136719	716.6826782226562	1687.834106445312	-238.9250030517578	709.0391845703125	1648.396362304688	-462.1554260253906	832.2918090820312	981.2197265625	-509.6309814453125	580.4846801757812	959.4315795898438	-231.2764587402344	674.7166748046875	997.5065307617188	-200.8023376464844	861.2070922851562	1014.942810058594	-376.379150390625	962.22216796875	514.7271118164062	-322.0126037597656	942.153076171875	647.0523681640625	-386.9210205078125	992.9046020507812	27.99887084960938	-335.552490234375	991.5498657226562	282.0888977050781	-327.2363891601562	1069.785034179688	73.61215972900391	-139.4773559570312	1007.360046386719	64.34814453125	-155.7160949707031	1072.765502929688	32.4000129699707	-257.8751525878906	906.7151489257812	30.25731658935547	-346.1600341796875	564.6023559570312	470.9101867675781	-353.862548828125	600.7385864257812	722.7149047851562	-236.9976196289062	355.17822265625	101.0417938232422	-634.6306762695312	545.88134765625	355.7276916503906	-414.1695251464844	542.1990966796875	40.29879760742188	-574.3264770507812	524.5877685546875	55.86251068115234	-631.0592651367188	419.1456909179688	38.0506706237793	-562.4444580078125	356.9942321777344	148.9229125976562	-705.6385498046875	
474	4.73	586.7327270507812	1016.64404296875	-421.2546691894531	673.5150756835938	1024.537109375	-502.4879760742188	614.5550537109375	1053.855712890625	-457.49462890625	800.17333984375	1272.321655273438	-277.6082153320312	583.682373046875	1211.206420898438	-485.4022216796875	634.7899780273438	1481.390380859375	-448.1308288574219	785.7286376953125	1384.979736328125	-307.2074584960938	513.5275268554688	1306.317993164062	-414.6335144042969	696.1500854492188	1457.781494140625	-526.6481323242188	805.229736328125	1449.616455078125	-535.0857543945312	822.5316162109375	1320.218872070312	-619.1175537109375	840.953369140625	1108.748657226562	-644.8544921875	767.5941162109375	1084.684814453125	-600.4180297851562	940.9131469726562	876.9844970703125	-603.2178344726562	876.7266845703125	859.2173461914062	-669.1526489257812	861.4461059570312	1001.0791015625	-663.6746215820312	952.45068359375	687.6157836914062	-599.1258544921875	897.4448852539062	789.9569091796875	-666.5938720703125	959.8428955078125	800.7875366210938	-628.8287963867188	561.3440551757812	1463.093383789062	-270.5830078125	498.3867797851562	1397.66357421875	-232.8858032226562	451.5460205078125	1105.832885742188	-209.5866394042969	511.9837951660156	1101.622802734375	-286.5841979980469	591.1234741210938	887.3675537109375	-139.7118072509766	505.4299621582031	862.792724609375	-150.5861206054688	464.4967041015625	1032.617309570312	-178.1130523681641	631.9191284179688	702.1743774414062	-159.3404693603516	613.3538818359375	792.9205932617188	-120.8648834228516	535.7230834960938	782.1202392578125	-138.8659210205078	622.8804931640625	1630.817504882812	-364.0194396972656	822.1407470703125	1701.112182617188	-316.6869201660156	723.7739868164062	1689.206787109375	-232.8784332275391	720.0366821289062	1650.086669921875	-456.2899169921875	843.2520751953125	983.8929443359375	-500.4021606445312	587.2996215820312	960.0714721679688	-225.9508972167969	680.9671020507812	998.7571411132812	-194.3030700683594	870.24267578125	1017.031799316406	-366.6227722167969	969.7534790039062	515.1251831054688	-314.9094543457031	951.1898803710938	648.7733154296875	-378.338134765625	993.9886474609375	27.59583473205566	-335.3128967285156	996.5375366210938	281.9910888671875	-323.2669067382812	1070.519775390625	69.43775939941406	-138.1295471191406	1008.162658691406	61.84307098388672	-154.8291778564453	1073.804077148438	30.19113540649414	-257.2457885742188	908.0098876953125	31.34694480895996	-346.2772216796875	573.8788452148438	469.6717834472656	-342.5160827636719	608.3002319335938	723.4991455078125	-229.6654815673828	361.0652770996094	109.2921524047852	-633.6602172851562	553.1609497070312	355.1506958007812	-403.7306518554688	540.4816284179688	41.09425735473633	-570.2625732421875	527.342041015625	56.56250381469727	-627.0510864257812	419.5367736816406	40.44232177734375	-562.0897827148438	367.9628601074219	158.7720947265625	-702.6806030273438	
475	4.74	596.0890502929688	1017.858520507812	-415.9501037597656	684.3074951171875	1026.299194335938	-495.8486328125	625.3357543945312	1055.165161132812	-451.7577514648438	807.839111328125	1274.190673828125	-269.7948608398438	594.5093994140625	1212.4267578125	-480.431884765625	645.218994140625	1482.689453125	-443.5186767578125	793.9174194335938	1386.752685546875	-300.0379028320312	523.3765869140625	1307.927124023438	-411.0811767578125	707.7062377929688	1458.797119140625	-521.0396118164062	816.8463134765625	1450.660888671875	-527.8381958007812	835.3027954101562	1320.935668945312	-611.1346435546875	853.6256713867188	1109.417602539062	-635.7649536132812	779.5626831054688	1085.692504882812	-592.2449951171875	951.010009765625	876.6843872070312	-593.1283569335938	887.6382446289062	859.717529296875	-660.040283203125	873.6090087890625	1001.754821777344	-654.3919067382812	960.0531005859375	687.0613403320312	-589.1893920898438	907.4860229492188	790.2337036132812	-657.3489990234375	969.3341674804688	800.0955200195312	-618.5397338867188	569.066650390625	1465.329345703125	-267.1949157714844	505.597900390625	1400.061401367188	-230.5921173095703	457.7807922363281	1108.58349609375	-207.4403076171875	519.203857421875	1104.08056640625	-283.1630249023438	594.452880859375	889.1123657226562	-134.5988616943359	508.8076171875	865.2626342773438	-146.9813079833984	469.7681274414062	1035.443481445312	-175.3042755126953	633.8237915039062	703.4248657226562	-153.3954925537109	615.7266235351562	794.451416015625	-115.1232833862305	538.2052001953125	784.3040771484375	-134.9232482910156	631.9014282226562	1632.502685546875	-359.9046630859375	830.4948120117188	1702.630249023438	-308.8580627441406	730.746337890625	1690.606567382812	-226.8600006103516	730.9600830078125	1651.82666015625	-450.3246765136719	853.8786010742188	986.4535522460938	-491.3219909667969	593.7949829101562	960.7513427734375	-220.9078369140625	686.8506469726562	999.9736938476562	-188.1441345214844	878.979248046875	1019.07373046875	-357.0697937011719	976.674072265625	515.323974609375	-308.5411071777344	959.599853515625	650.1410522460938	-370.619873046875	994.8296508789062	27.21604347229004	-335.1791687011719	1000.930480957031	281.8073425292969	-319.89208984375	1071.112426757812	65.97181701660156	-137.2037811279297	1008.855651855469	59.95466995239258	-154.2195892333984	1074.713745117188	28.55304145812988	-256.8874816894531	909.0784912109375	32.16769027709961	-346.4145202636719	583.3826293945312	468.3473815917969	-330.6501770019531	615.637939453125	724.3573608398438	-222.2798614501953	368.1317749023438	118.1628112792969	-632.2368774414062	560.9071655273438	354.6019592285156	-392.6616821289062	538.943603515625	42.25737380981445	-565.1640625	530.5917358398438	57.21218872070312	-621.9491577148438	420.4134521484375	43.94321060180664	-561.0377807617188	380.4903564453125	168.5623321533203	-699.2547607421875	
